<?xml version="1.0" encoding="utf-8"?>
<!-- Generator: Adobe Illustrator 15.0.2, SVG Export Plug-In . SVG Version: 6.00 Build 0)  -->
<!DOCTYPE svg PUBLIC "-//W3C//DTD SVG 1.0//EN" "http://www.w3.org/TR/2001/REC-SVG-20010904/DTD/svg10.dtd">
<svg version="1.0" id="Layer_1" xmlns="http://www.w3.org/2000/svg" xmlns:xlink="http://www.w3.org/1999/xlink" x="0px" y="0px"
	 width="51px" height="41px" viewBox="0 0 51 41" enable-background="new 0 0 51 41" xml:space="preserve">
<g>
	<g>
		<g>
			<g>
				<path fill="#FFFFFF" d="M51,7.361V6.303c0-1.258-1.005-2.273-2.247-2.273H31.921l-0.758-2.491
					c-0.405-1.155-0.91-1.53-1.964-1.539h-7.397c-1.054,0.009-1.562,0.384-1.963,1.539L19.076,4.03H2.247
					C1.003,4.03,0,5.045,0,6.303v17.873h51v-3.329H25.501v-2.276H51v-3.328H25.501v-2.277H51V9.635H25.501V7.361H51z M12.662,8.85
					l0.552-1.724l0.552,1.724h1.79l-1.447,1.063l0.554,1.725l-1.448-1.063l-1.448,1.063l0.553-1.725l-1.45-1.063H12.662z
					 M5.946,8.85l0.552-1.724L7.049,8.85H8.84L7.393,9.913l0.552,1.725l-1.446-1.063L5.05,11.638l0.554-1.725L4.154,8.85H5.946z
					 M7.945,20.87l-1.446-1.062L5.05,20.87l0.554-1.724l-1.449-1.064h1.792l0.552-1.723l0.551,1.723H8.84l-1.447,1.064L7.945,20.87z
					 M8.365,16.224l0.55-1.725l-1.446-1.063h1.79l0.551-1.726l0.553,1.726h1.791L10.706,14.5l0.554,1.725l-1.449-1.063L8.365,16.224
					z M14.662,20.87l-1.448-1.062l-1.448,1.062l0.553-1.724l-1.45-1.064h1.793l0.552-1.723l0.552,1.723h1.79l-1.447,1.064
					L14.662,20.87z M15.078,16.224l0.554-1.725l-1.449-1.063h1.791l0.553-1.726l0.553,1.726h1.788L17.422,14.5l0.552,1.725
					l-1.447-1.063L15.078,16.224z M21.378,20.87l-1.45-1.062l-1.445,1.062l0.552-1.724l-1.45-1.064h1.792l0.551-1.723l0.553,1.723
					h1.79l-1.445,1.064L21.378,20.87z M20.826,9.913l0.552,1.725l-1.45-1.063l-1.445,1.063l0.552-1.725l-1.45-1.063h1.792
					l0.551-1.724l0.553,1.724h1.79L20.826,9.913z M21.301,4.03l0.276-1.608c0.137-0.742,0.685-1.009,1.287-1.025h5.273
					c0.604,0.016,1.155,0.283,1.283,1.025l0.278,1.608H21.301z"/>
			</g>
		</g>
	</g>
	<rect y="26.457" fill="#FFFFFF" width="51" height="3.327"/>
	<rect y="32.062" fill="#FFFFFF" width="51" height="3.328"/>
	<path fill="#FFFFFF" d="M0,38.722C0,39.98,1.003,41,2.247,41h46.506C49.995,41,51,39.98,51,38.722v-1.055H0V38.722z"/>
</g>
</svg>
