<?xml version="1.0" encoding="utf-8"?>
<!-- Generator: Adobe Illustrator 15.0.2, SVG Export Plug-In . SVG Version: 6.00 Build 0)  -->
<!DOCTYPE svg PUBLIC "-//W3C//DTD SVG 1.0//EN" "http://www.w3.org/TR/2001/REC-SVG-20010904/DTD/svg10.dtd">
<svg version="1.0" id="Layer_1" xmlns="http://www.w3.org/2000/svg" xmlns:xlink="http://www.w3.org/1999/xlink" x="0px" y="0px"
	 width="249.717px" height="33.47px" viewBox="0 0 249.717 33.47" enable-background="new 0 0 249.717 33.47" xml:space="preserve">
<g>
	<path fill="#FFFFFF" d="M3.678,2.746H0V0.813h9.494v1.933h-3.68v10.07H3.678V2.746z"/>
	<path fill="#FFFFFF" d="M13.141,5.814h0.033c0.322-0.678,1.137-1.339,2.391-1.339c2.188,0,2.967,1.543,2.967,3.204v5.137h-2.033
		V8.697c0-0.898-0.068-2.391-1.492-2.391c-1.34,0-1.865,0.983-1.865,2.068v4.441h-2.035V0h2.035V5.814z"/>
	<path fill="#FFFFFF" d="M22.807,9.459c0.137,1.204,1.051,1.933,2.188,1.933c1.018,0,1.678-0.475,2.188-1.102l1.457,1.102
		c-0.949,1.17-2.152,1.627-3.441,1.627c-2.459,0-4.424-1.712-4.424-4.271c0-2.561,1.965-4.272,4.424-4.272
		c2.271,0,3.814,1.594,3.814,4.425v0.56H22.807z M26.977,7.933c-0.016-1.186-0.797-1.932-2.068-1.932
		c-1.203,0-1.949,0.762-2.102,1.932H26.977z"/>
	<path fill="#FFFFFF" d="M44.154,3.763c0,1.271-0.611,2.34-1.814,2.695v0.034c1.152,0.237,2.188,1.44,2.188,2.916
		c0,2.373-1.814,3.61-4.053,3.61c-2.236,0-4.051-1.237-4.051-3.61c0-1.476,1.051-2.679,2.188-2.916V6.458
		c-1.205-0.355-1.814-1.424-1.814-2.695c0-2.017,1.645-3.153,3.678-3.153C42.51,0.61,44.154,1.746,44.154,3.763z M38.459,9.154
		c0,1.137,0.848,1.934,2.016,1.934c1.17,0,2.018-0.797,2.018-1.934c0-1.102-0.914-1.881-2.018-1.881
		C39.373,7.273,38.459,8.052,38.459,9.154z M38.832,3.966c0,0.949,0.643,1.679,1.643,1.679c0.898,0,1.645-0.729,1.645-1.679
		c0-0.898-0.711-1.627-1.645-1.627C39.441,2.339,38.832,3.068,38.832,3.966z"/>
	<path fill="#FFFFFF" d="M46.039,6.408V4.679h1.678V2.322h2.035v2.357h2.236v1.729h-2.236v3.561c0,0.813,0.236,1.322,1.135,1.322
		c0.357,0,0.848-0.068,1.102-0.254v1.711c-0.424,0.204-1.135,0.271-1.609,0.271c-2.152,0-2.662-0.966-2.662-2.882V6.408H46.039z"/>
	<path fill="#FFFFFF" d="M55.959,5.814h0.033c0.322-0.678,1.137-1.339,2.391-1.339c2.188,0,2.967,1.543,2.967,3.204v5.137h-2.033
		V8.697c0-0.898-0.068-2.391-1.492-2.391c-1.34,0-1.865,0.983-1.865,2.068v4.441h-2.035V0h2.035V5.814z"/>
	<path fill="#FFFFFF" d="M73.424,0.813h1.848l5.17,12.002h-2.439l-1.119-2.746h-5.205l-1.084,2.746h-2.391L73.424,0.813z
		 M76.137,8.239l-1.848-4.882l-1.883,4.882H76.137z"/>
	<path fill="#FFFFFF" d="M81.938,4.679h1.934v1.305h0.033c0.373-0.813,1.137-1.509,2.492-1.509c2.188,0,2.967,1.543,2.967,3.204
		v5.137H87.33V8.697c0-0.898-0.068-2.391-1.492-2.391c-1.34,0-1.865,0.983-1.865,2.068v4.441h-2.035V4.679z"/>
	<path fill="#FFFFFF" d="M92.01,4.679h1.934v1.305h0.033c0.373-0.813,1.137-1.509,2.492-1.509c2.188,0,2.967,1.543,2.967,3.204
		v5.137h-2.033V8.697c0-0.898-0.068-2.391-1.492-2.391c-1.34,0-1.865,0.983-1.865,2.068v4.441H92.01V4.679z"/>
	<path fill="#FFFFFF" d="M109.508,12.816h-1.932v-1.305h-0.035c-0.373,0.812-1.135,1.508-2.492,1.508
		c-2.186,0-2.967-1.543-2.967-3.203V4.679h2.035v4.119c0,0.898,0.068,2.391,1.492,2.391c1.34,0,1.865-0.984,1.865-2.068V4.679h2.033
		V12.816z"/>
	<path fill="#FFFFFF" d="M117.242,11.697h-0.051c-0.576,0.916-1.525,1.322-2.611,1.322c-1.508,0-2.967-0.83-2.967-2.441
		c0-2.645,3.086-2.83,5.119-2.83h0.51V7.527c0-1-0.779-1.525-1.865-1.525c-0.848,0-1.627,0.338-2.17,0.848l-1.068-1.068
		c0.898-0.916,2.17-1.306,3.459-1.306c3.475,0,3.475,2.509,3.475,3.662v4.679h-1.83V11.697z M117.123,9.171h-0.424
		c-1.119,0-3.051,0.084-3.051,1.254c0,0.746,0.762,1.068,1.424,1.068c1.391,0,2.051-0.729,2.051-1.865V9.171z"/>
	<path fill="#FFFFFF" d="M121.635,0h2.035v12.816h-2.035V0z"/>
	<path fill="#FFFFFF" d="M131.895,0.813h2.83l5.816,8.917l0.033,0.035h-0.033l0.033-0.035V0.813h2.137v12.002h-2.713l-5.934-9.205
		h-0.033v9.205h-2.137V0.813z"/>
	<path fill="#FFFFFF" d="M150.631,11.697h-0.051c-0.576,0.916-1.525,1.322-2.609,1.322c-1.51,0-2.967-0.83-2.967-2.441
		c0-2.645,3.084-2.83,5.119-2.83h0.508V7.527c0-1-0.779-1.525-1.863-1.525c-0.848,0-1.629,0.338-2.17,0.848l-1.068-1.068
		c0.898-0.916,2.17-1.306,3.457-1.306c3.477,0,3.477,2.509,3.477,3.662v4.679h-1.832V11.697z M150.514,9.171h-0.424
		c-1.119,0-3.053,0.084-3.053,1.254c0,0.746,0.764,1.068,1.424,1.068c1.391,0,2.053-0.729,2.053-1.865V9.171z"/>
	<path fill="#FFFFFF" d="M154.041,6.408V4.679h1.68V2.322h2.033v2.357h2.238v1.729h-2.238v3.561c0,0.813,0.238,1.322,1.137,1.322
		c0.355,0,0.848-0.068,1.102-0.254v1.711c-0.424,0.204-1.137,0.271-1.611,0.271c-2.152,0-2.66-0.966-2.66-2.882V6.408H154.041z"/>
	<path fill="#FFFFFF" d="M162.961,0.695c0.746,0,1.322,0.525,1.322,1.221c0,0.695-0.576,1.221-1.322,1.221s-1.289-0.577-1.289-1.221
		S162.215,0.695,162.961,0.695z M161.961,4.679h2.033v8.137h-2.033V4.679z"/>
	<path fill="#FFFFFF" d="M170.693,4.475c2.459,0,4.424,1.712,4.424,4.272c0,2.56-1.965,4.271-4.424,4.271s-4.424-1.712-4.424-4.271
		C166.27,6.187,168.234,4.475,170.693,4.475z M170.693,11.189c1.492,0,2.391-1.17,2.391-2.441s-0.898-2.441-2.391-2.441
		s-2.391,1.17-2.391,2.441S169.201,11.189,170.693,11.189z"/>
	<path fill="#FFFFFF" d="M177.357,4.679h1.934v1.305h0.033c0.373-0.813,1.137-1.509,2.492-1.509c2.188,0,2.967,1.543,2.967,3.204
		v5.137h-2.033V8.697c0-0.898-0.068-2.391-1.492-2.391c-1.34,0-1.865,0.983-1.865,2.068v4.441h-2.035V4.679z"/>
	<path fill="#FFFFFF" d="M192.516,11.697h-0.051c-0.576,0.916-1.525,1.322-2.609,1.322c-1.51,0-2.967-0.83-2.967-2.441
		c0-2.645,3.084-2.83,5.119-2.83h0.508V7.527c0-1-0.779-1.525-1.863-1.525c-0.848,0-1.629,0.338-2.17,0.848l-1.068-1.068
		c0.898-0.916,2.17-1.306,3.457-1.306c3.477,0,3.477,2.509,3.477,3.662v4.679h-1.832V11.697z M192.398,9.171h-0.424
		c-1.119,0-3.053,0.084-3.053,1.254c0,0.746,0.764,1.068,1.424,1.068c1.391,0,2.053-0.729,2.053-1.865V9.171z"/>
	<path fill="#FFFFFF" d="M196.91,0h2.035v12.816h-2.035V0z"/>
	<path fill="#FFFFFF" d="M7.104,23.74c-0.459-0.645-1.271-0.949-2.102-0.949c-0.984,0-1.967,0.441-1.967,1.543
		c0,2.407,5.695,1.033,5.695,5.307c0,2.576-2.035,3.83-4.391,3.83c-1.492,0-2.949-0.457-3.934-1.627l1.611-1.56
		c0.525,0.797,1.424,1.255,2.373,1.255c0.982,0,2.102-0.543,2.102-1.645c0-2.628-5.695-1.119-5.695-5.408
		c0-2.475,2.203-3.628,4.424-3.628c1.256,0,2.51,0.356,3.441,1.237L7.104,23.74z"/>
	<path fill="#FFFFFF" d="M10.156,26.757v-1.729h1.68v-2.357h2.033v2.357h2.238v1.729h-2.238v3.561c0,0.813,0.238,1.322,1.137,1.322
		c0.355,0,0.848-0.068,1.102-0.254v1.711c-0.424,0.204-1.137,0.271-1.611,0.271c-2.152,0-2.66-0.966-2.66-2.882v-3.729H10.156z"/>
	<path fill="#FFFFFF" d="M25.469,33.166h-1.934v-1.305h-0.033c-0.373,0.812-1.137,1.508-2.492,1.508
		c-2.188,0-2.967-1.543-2.967-3.203v-5.137h2.035v4.119c0,0.898,0.066,2.391,1.49,2.391c1.34,0,1.865-0.984,1.865-2.068v-4.441
		h2.035V33.166z"/>
	<path fill="#FFFFFF" d="M34.557,31.945h-0.033c-0.594,0.983-1.662,1.424-2.797,1.424c-2.51,0-4.018-1.864-4.018-4.271
		c0-2.408,1.609-4.272,3.932-4.272c1.527,0,2.34,0.712,2.764,1.237h0.051v-5.713h2.035v12.816h-1.934V31.945z M32.133,31.539
		c1.492,0,2.391-1.17,2.391-2.441s-0.898-2.441-2.391-2.441s-2.391,1.17-2.391,2.441S30.641,31.539,32.133,31.539z"/>
	<path fill="#FFFFFF" d="M40.766,29.809c0.135,1.204,1.051,1.933,2.186,1.933c1.018,0,1.68-0.475,2.188-1.102l1.459,1.102
		c-0.951,1.17-2.154,1.627-3.441,1.627c-2.459,0-4.426-1.712-4.426-4.271c0-2.561,1.967-4.272,4.426-4.272
		c2.271,0,3.812,1.594,3.812,4.425v0.56H40.766z M44.936,28.283c-0.018-1.186-0.797-1.932-2.068-1.932
		c-1.203,0-1.949,0.762-2.102,1.932H44.936z"/>
	<path fill="#FFFFFF" d="M49.209,25.029h1.934v1.305h0.033c0.373-0.813,1.137-1.509,2.492-1.509c2.188,0,2.967,1.543,2.967,3.204
		v5.137h-2.033v-4.119c0-0.898-0.068-2.391-1.492-2.391c-1.34,0-1.865,0.983-1.865,2.068v4.441h-2.035V25.029z"/>
	<path fill="#FFFFFF" d="M58.334,26.757v-1.729h1.678v-2.357h2.035v2.357h2.236v1.729h-2.236v3.561c0,0.813,0.236,1.322,1.135,1.322
		c0.357,0,0.848-0.068,1.102-0.254v1.711c-0.424,0.204-1.135,0.271-1.609,0.271c-2.152,0-2.662-0.966-2.662-2.882v-3.729H58.334z"/>
	<path fill="#FFFFFF" d="M77.646,23.74c-0.459-0.645-1.271-0.949-2.102-0.949c-0.984,0-1.967,0.441-1.967,1.543
		c0,2.407,5.695,1.033,5.695,5.307c0,2.576-2.035,3.83-4.391,3.83c-1.492,0-2.949-0.457-3.934-1.627l1.611-1.56
		c0.525,0.797,1.424,1.255,2.373,1.255c0.982,0,2.102-0.543,2.102-1.645c0-2.628-5.695-1.119-5.695-5.408
		c0-2.475,2.203-3.628,4.424-3.628c1.256,0,2.51,0.356,3.441,1.237L77.646,23.74z"/>
	<path fill="#FFFFFF" d="M83.686,26.164h0.033c0.322-0.678,1.135-1.339,2.391-1.339c2.186,0,2.967,1.543,2.967,3.204v5.137h-2.035
		v-4.119c0-0.898-0.068-2.391-1.492-2.391c-1.338,0-1.863,0.983-1.863,2.068v4.441H81.65V20.349h2.035V26.164z"/>
	<path fill="#FFFFFF" d="M95.74,24.825c2.459,0,4.424,1.712,4.424,4.272c0,2.56-1.965,4.271-4.424,4.271s-4.424-1.712-4.424-4.271
		C91.316,26.537,93.281,24.825,95.74,24.825z M95.74,31.539c1.492,0,2.391-1.17,2.391-2.441s-0.898-2.441-2.391-2.441
		s-2.391,1.17-2.391,2.441S94.248,31.539,95.74,31.539z"/>
	<path fill="#FFFFFF" d="M101.303,25.029h2.205l1.762,5.695h0.035l1.645-5.695h2.203l1.764,5.695h0.033l1.695-5.695h2.051
		l-2.764,8.137h-2.016l-1.934-5.561h-0.033l-1.713,5.561h-2.102L101.303,25.029z"/>
	<path fill="#FFFFFF" d="M126.688,32.046h-0.051c-0.576,0.916-1.525,1.322-2.611,1.322c-1.508,0-2.967-0.83-2.967-2.441
		c0-2.645,3.086-2.83,5.119-2.83h0.51v-0.221c0-1-0.779-1.525-1.865-1.525c-0.848,0-1.627,0.338-2.17,0.848l-1.068-1.068
		c0.898-0.916,2.17-1.306,3.459-1.306c3.475,0,3.475,2.509,3.475,3.662v4.679h-1.83V32.046z M126.568,29.521h-0.424
		c-1.119,0-3.051,0.084-3.051,1.254c0,0.746,0.762,1.068,1.424,1.068c1.391,0,2.051-0.729,2.051-1.865V29.521z"/>
	<path fill="#FFFFFF" d="M131.047,25.029h1.932v1.305h0.035c0.373-0.813,1.135-1.509,2.492-1.509c2.186,0,2.967,1.543,2.967,3.204
		v5.137h-2.035v-4.119c0-0.898-0.068-2.391-1.492-2.391c-1.338,0-1.863,0.983-1.863,2.068v4.441h-2.035V25.029z"/>
	<path fill="#FFFFFF" d="M147.561,31.945h-0.033c-0.594,0.983-1.662,1.424-2.797,1.424c-2.51,0-4.018-1.864-4.018-4.271
		c0-2.408,1.609-4.272,3.932-4.272c1.527,0,2.34,0.712,2.764,1.237h0.051v-5.713h2.035v12.816h-1.934V31.945z M145.137,31.539
		c1.492,0,2.391-1.17,2.391-2.441s-0.898-2.441-2.391-2.441s-2.391,1.17-2.391,2.441S143.645,31.539,145.137,31.539z"/>
	<path fill="#FFFFFF" d="M165.926,23.977c-0.881-0.933-1.695-1.187-2.525-1.187c-2.475,0-4.119,1.898-4.119,4.289
		c0,2.561,1.645,4.459,4.119,4.459c0.967,0,1.898-0.441,2.695-1.459l1.764,1.255c-1.086,1.492-2.713,2.136-4.477,2.136
		c-3.695,0-6.34-2.508-6.34-6.255c0-3.849,2.645-6.357,6.34-6.357c1.629,0,3.018,0.525,4.205,1.899L165.926,23.977z"/>
	<path fill="#FFFFFF" d="M173.475,24.825c2.457,0,4.424,1.712,4.424,4.272c0,2.56-1.967,4.271-4.424,4.271
		c-2.459,0-4.426-1.712-4.426-4.271C169.049,26.537,171.016,24.825,173.475,24.825z M173.475,31.539c1.49,0,2.389-1.17,2.389-2.441
		s-0.898-2.441-2.389-2.441c-1.492,0-2.391,1.17-2.391,2.441S171.982,31.539,173.475,31.539z"/>
	<path fill="#FFFFFF" d="M180.139,25.029h1.934v1.305h0.033c0.373-0.813,1.137-1.509,2.492-1.509c2.188,0,2.967,1.543,2.967,3.204
		v5.137h-2.033v-4.119c0-0.898-0.068-2.391-1.492-2.391c-1.34,0-1.865,0.983-1.865,2.068v4.441h-2.035V25.029z"/>
	<path fill="#FFFFFF" d="M190.941,26.757h-1.68v-1.729h1.68v-1.153c0-2.255,0.508-3.729,3.033-3.729
		c0.441,0,0.865,0.033,1.289,0.119l-0.135,1.729c-0.289-0.068-0.561-0.119-0.848-0.119c-1.137,0-1.307,0.78-1.307,1.679v1.476h1.883
		v1.729h-1.883v6.408h-2.033V26.757z"/>
	<path fill="#FFFFFF" d="M198.146,29.809c0.137,1.204,1.051,1.933,2.188,1.933c1.018,0,1.678-0.475,2.188-1.102l1.457,1.102
		c-0.949,1.17-2.152,1.627-3.441,1.627c-2.459,0-4.424-1.712-4.424-4.271c0-2.561,1.965-4.272,4.424-4.272
		c2.271,0,3.814,1.594,3.814,4.425v0.56H198.146z M202.316,28.283c-0.016-1.186-0.797-1.932-2.068-1.932
		c-1.203,0-1.949,0.762-2.102,1.932H202.316z"/>
	<path fill="#FFFFFF" d="M206.592,25.029h2.035v1.288h0.033c0.441-0.933,1.34-1.492,2.408-1.492c0.254,0,0.492,0.052,0.729,0.118
		v1.967c-0.338-0.084-0.66-0.152-0.982-0.152c-1.916,0-2.188,1.611-2.188,2.051v4.357h-2.035V25.029z"/>
	<path fill="#FFFFFF" d="M214.854,29.809c0.137,1.204,1.051,1.933,2.188,1.933c1.018,0,1.678-0.475,2.188-1.102l1.457,1.102
		c-0.949,1.17-2.152,1.627-3.441,1.627c-2.459,0-4.424-1.712-4.424-4.271c0-2.561,1.965-4.272,4.424-4.272
		c2.271,0,3.814,1.594,3.814,4.425v0.56H214.854z M219.023,28.283c-0.016-1.186-0.797-1.932-2.068-1.932
		c-1.203,0-1.949,0.762-2.102,1.932H219.023z"/>
	<path fill="#FFFFFF" d="M223.299,25.029h1.932v1.305h0.035c0.373-0.813,1.135-1.509,2.492-1.509c2.186,0,2.967,1.543,2.967,3.204
		v5.137h-2.035v-4.119c0-0.898-0.068-2.391-1.492-2.391c-1.338,0-1.863,0.983-1.863,2.068v4.441h-2.035V25.029z"/>
	<path fill="#FFFFFF" d="M238.932,27.47c-0.475-0.492-1-0.814-1.543-0.814c-1.492,0-2.391,1.17-2.391,2.441s0.898,2.441,2.391,2.441
		c0.627,0,1.203-0.271,1.576-0.764l1.357,1.458c-0.832,0.831-2.221,1.136-2.934,1.136c-2.459,0-4.424-1.712-4.424-4.271
		c0-2.561,1.965-4.272,4.424-4.272c1.035,0,2.17,0.373,2.949,1.237L238.932,27.47z"/>
	<path fill="#FFFFFF" d="M243.512,29.809c0.137,1.204,1.051,1.933,2.188,1.933c1.018,0,1.678-0.475,2.188-1.102l1.457,1.102
		c-0.949,1.17-2.152,1.627-3.441,1.627c-2.459,0-4.424-1.712-4.424-4.271c0-2.561,1.965-4.272,4.424-4.272
		c2.271,0,3.814,1.594,3.814,4.425v0.56H243.512z M247.682,28.283c-0.016-1.186-0.797-1.932-2.068-1.932
		c-1.203,0-1.949,0.762-2.102,1.932H247.682z"/>
</g>
</svg>
