<?xml version="1.0" encoding="utf-8"?>
<!-- Generator: Adobe Illustrator 15.0.2, SVG Export Plug-In . SVG Version: 6.00 Build 0)  -->
<!DOCTYPE svg PUBLIC "-//W3C//DTD SVG 1.0//EN" "http://www.w3.org/TR/2001/REC-SVG-20010904/DTD/svg10.dtd">
<svg version="1.0" id="Layer_1" xmlns="http://www.w3.org/2000/svg" xmlns:xlink="http://www.w3.org/1999/xlink" x="0px" y="0px"
	 width="102.362px" height="42.977px" viewBox="0 0 102.362 42.977" enable-background="new 0 0 102.362 42.977"
	 xml:space="preserve">
<g>
	<path fill="#FFFFFF" d="M17.607,2.24h7.424l17.721,40.737H32.625l-3.51-8.629H13.291l-3.395,8.629H0L17.607,2.24z M21.058,14.092
		L16.111,26.75h9.954L21.058,14.092z"/>
	<path fill="#FFFFFF" d="M58.403,15.012h8.284v3.799h0.116c1.148-2.188,3.968-4.49,8.17-4.49c3.912,0,7.135,1.613,8.632,5.01
		c2.015-3.568,4.718-5.01,8.862-5.01c7.595,0,9.895,5.354,9.895,12.145v16.512h-8.631V26.692c0-2.588-0.977-4.773-3.795-4.773
		c-3.972,0-5.236,2.82-5.236,6.271v14.787h-8.633V28.19c0-2.071,0.114-6.271-3.857-6.271c-4.487,0-5.178,3.51-5.178,7.135v13.924
		h-8.629V15.012z"/>
	<rect x="44.708" y="15.012" fill="#FFFFFF" width="8.631" height="27.965"/>
	<path fill="#FFFFFF" d="M49.023,0c-3.426,0-6.211,2.784-6.211,6.208c0,3.428,2.785,6.21,6.211,6.21c3.425,0,6.21-2.782,6.21-6.21
		C55.233,2.784,52.448,0,49.023,0z M49.023,10.062c-2.125,0-3.854-1.728-3.854-3.853c0-2.125,1.728-3.852,3.854-3.852
		s3.853,1.727,3.853,3.852C52.876,8.333,51.149,10.062,49.023,10.062z"/>
	<circle fill="#FFFFFF" cx="49.023" cy="6.209" r="1.701"/>
</g>
</svg>
