<?xml version="1.0" encoding="utf-8"?>
<!-- Generator: Adobe Illustrator 15.0.2, SVG Export Plug-In . SVG Version: 6.00 Build 0)  -->
<!DOCTYPE svg PUBLIC "-//W3C//DTD SVG 1.1//EN" "http://www.w3.org/Graphics/SVG/1.1/DTD/svg11.dtd">
<svg version="1.1" id="Layer_1" xmlns="http://www.w3.org/2000/svg" xmlns:xlink="http://www.w3.org/1999/xlink" x="0px" y="0px"
	 width="299.894px" height="103.815px" viewBox="0 0 299.894 103.815" enable-background="new 0 0 299.894 103.815"
	 xml:space="preserve">
<g>
	<rect x="221.667" y="48.548" fill="#FFFFFF" width="78.227" height="5.039"/>
	<path fill="#FFFFFF" d="M221.667,58.634c0,1.906,1.537,3.449,3.448,3.449h71.33c1.907,0,3.448-1.543,3.448-3.449v-1.597h-78.227
		V58.634z"/>
	<rect x="221.667" y="40.062" fill="#FFFFFF" width="78.227" height="5.038"/>
	<path fill="#FFFFFF" d="M299.894,11.146V9.545c0-1.906-1.541-3.442-3.448-3.442H270.63l-1.161-3.772
		c-0.623-1.75-1.397-2.317-3.013-2.331h-11.348c-1.616,0.014-2.396,0.582-3.014,2.331l-1.168,3.772h-25.812
		c-1.911,0-3.448,1.536-3.448,3.442v27.063h78.227v-5.041h-39.111V28.12h39.111v-5.038h-39.111v-3.448h39.111v-5.045h-39.111v-3.443
		H299.894z M241.088,13.4l0.849-2.609l0.847,2.609h2.744l-2.221,1.61l0.85,2.611l-2.22-1.609l-2.224,1.609l0.85-2.611l-2.226-1.61
		H241.088z M230.789,13.4l0.846-2.609l0.847,2.609h2.745l-2.218,1.61l0.846,2.611l-2.22-1.609l-2.223,1.609l0.849-2.611l-2.223-1.61
		H230.789z M233.854,31.601l-2.22-1.607l-2.223,1.607l0.849-2.61l-2.223-1.61h2.751l0.846-2.609l0.847,2.609h2.745l-2.218,1.61
		L233.854,31.601z M234.498,24.567l0.844-2.612l-2.217-1.609h2.745l0.846-2.614l0.846,2.614h2.748l-2.221,1.609l0.85,2.612
		l-2.223-1.611L234.498,24.567z M244.156,31.601l-2.22-1.607l-2.224,1.607l0.85-2.61l-2.226-1.61h2.751l0.849-2.609l0.847,2.609
		h2.744l-2.221,1.61L244.156,31.601z M244.795,24.567l0.848-2.612l-2.219-1.609h2.744l0.85-2.614l0.849,2.614h2.742l-2.218,1.609
		l0.848,2.612l-2.221-1.611L244.795,24.567z M254.458,31.601l-2.223-1.607l-2.217,1.607l0.846-2.61l-2.222-1.61h2.746l0.847-2.609
		l0.847,2.609h2.747l-2.217,1.61L254.458,31.601z M253.612,15.011l0.846,2.611l-2.223-1.609l-2.217,1.609l0.846-2.611l-2.222-1.61
		h2.746l0.847-2.609l0.847,2.609h2.747L253.612,15.011z M254.338,6.103l0.424-2.436c0.212-1.125,1.053-1.527,1.977-1.552h8.087
		c0.927,0.025,1.771,0.428,1.967,1.552l0.427,2.436H254.338z"/>
</g>
<g>
	<path fill="#FFFFFF" d="M17.606,21.347h7.424l17.721,40.736H32.625l-3.511-8.629H13.291l-3.396,8.629H0L17.606,21.347z
		 M21.058,33.198l-4.946,12.658h9.954L21.058,33.198z"/>
	<path fill="#FFFFFF" d="M58.403,34.118h8.284v3.799h0.116c1.148-2.188,3.968-4.49,8.17-4.49c3.912,0,7.135,1.613,8.632,5.01
		c2.015-3.568,4.718-5.01,8.862-5.01c7.595,0,9.895,5.354,9.895,12.145v16.512h-8.631V45.798c0-2.588-0.977-4.773-3.795-4.773
		c-3.972,0-5.236,2.82-5.236,6.271v14.787h-8.633V47.296c0-2.071,0.114-6.271-3.857-6.271c-4.487,0-5.178,3.51-5.178,7.135v13.924
		h-8.629V34.118z"/>
	<rect x="44.708" y="34.118" fill="#FFFFFF" width="8.631" height="27.965"/>
	<path fill="#FFFFFF" d="M49.023,19.106c-3.426,0-6.211,2.783-6.211,6.208c0,3.429,2.785,6.21,6.211,6.21
		c3.425,0,6.21-2.781,6.21-6.21C55.233,21.89,52.448,19.106,49.023,19.106z M49.023,29.167c-2.126,0-3.854-1.728-3.854-3.853
		c0-2.124,1.728-3.852,3.854-3.852s3.853,1.728,3.853,3.852C52.876,27.439,51.149,29.167,49.023,29.167z"/>
	<circle fill="#FFFFFF" cx="49.023" cy="25.315" r="1.701"/>
</g>
<g>
	<path fill="#FFFFFF" d="M3.678,73.091H0v-1.932h9.494v1.932h-3.68v10.07H3.678V73.091z"/>
	<path fill="#FFFFFF" d="M13.141,76.159h0.033c0.322-0.678,1.137-1.339,2.391-1.339c2.188,0,2.967,1.543,2.967,3.204v5.137h-2.033
		v-4.119c0-0.898-0.068-2.391-1.492-2.391c-1.34,0-1.865,0.983-1.865,2.068v4.441h-2.035V70.345h2.035V76.159z"/>
	<path fill="#FFFFFF" d="M22.807,79.805c0.137,1.204,1.051,1.933,2.188,1.933c1.018,0,1.678-0.475,2.188-1.102l1.457,1.102
		c-0.949,1.17-2.152,1.627-3.441,1.627c-2.459,0-4.424-1.712-4.424-4.271c0-2.561,1.965-4.272,4.424-4.272
		c2.271,0,3.814,1.594,3.814,4.425v0.56H22.807z M26.977,78.278c-0.016-1.186-0.797-1.932-2.068-1.932
		c-1.203,0-1.949,0.762-2.102,1.932H26.977z"/>
	<path fill="#FFFFFF" d="M44.154,74.108c0,1.271-0.611,2.34-1.814,2.695v0.034c1.152,0.237,2.188,1.44,2.188,2.916
		c0,2.373-1.814,3.61-4.053,3.61c-2.236,0-4.051-1.237-4.051-3.61c0-1.476,1.051-2.679,2.188-2.916v-0.034
		c-1.205-0.355-1.814-1.424-1.814-2.695c0-2.018,1.645-3.152,3.678-3.152C42.51,70.956,44.154,72.091,44.154,74.108z M38.459,79.499
		c0,1.137,0.848,1.934,2.016,1.934c1.17,0,2.018-0.797,2.018-1.934c0-1.102-0.914-1.881-2.018-1.881
		C39.373,77.618,38.459,78.397,38.459,79.499z M38.832,74.312c0,0.949,0.643,1.679,1.643,1.679c0.898,0,1.645-0.729,1.645-1.679
		c0-0.898-0.711-1.627-1.645-1.627C39.441,72.685,38.832,73.413,38.832,74.312z"/>
	<path fill="#FFFFFF" d="M46.039,76.753v-1.729h1.678v-2.357h2.035v2.357h2.236v1.729h-2.236v3.561c0,0.813,0.236,1.322,1.135,1.322
		c0.357,0,0.848-0.068,1.102-0.254v1.711c-0.424,0.204-1.135,0.271-1.609,0.271c-2.152,0-2.662-0.966-2.662-2.882v-3.729H46.039z"/>
	<path fill="#FFFFFF" d="M55.959,76.159h0.033c0.322-0.678,1.137-1.339,2.391-1.339c2.188,0,2.967,1.543,2.967,3.204v5.137h-2.033
		v-4.119c0-0.898-0.068-2.391-1.492-2.391c-1.34,0-1.865,0.983-1.865,2.068v4.441h-2.035V70.345h2.035V76.159z"/>
	<path fill="#FFFFFF" d="M73.424,71.159h1.848l5.17,12.002h-2.439l-1.119-2.746h-5.205l-1.084,2.746h-2.391L73.424,71.159z
		 M76.137,78.584l-1.848-4.882l-1.883,4.882H76.137z"/>
	<path fill="#FFFFFF" d="M81.938,75.024h1.934v1.305h0.033c0.373-0.813,1.137-1.509,2.492-1.509c2.188,0,2.967,1.543,2.967,3.204
		v5.137H87.33v-4.119c0-0.898-0.068-2.391-1.492-2.391c-1.34,0-1.865,0.983-1.865,2.068v4.441h-2.035V75.024z"/>
	<path fill="#FFFFFF" d="M92.01,75.024h1.934v1.305h0.033c0.373-0.813,1.137-1.509,2.492-1.509c2.188,0,2.967,1.543,2.967,3.204
		v5.137h-2.033v-4.119c0-0.898-0.068-2.391-1.492-2.391c-1.34,0-1.865,0.983-1.865,2.068v4.441H92.01V75.024z"/>
	<path fill="#FFFFFF" d="M109.508,83.161h-1.932v-1.305h-0.035c-0.373,0.812-1.135,1.508-2.492,1.508
		c-2.186,0-2.967-1.543-2.967-3.203v-5.137h2.035v4.119c0,0.898,0.068,2.391,1.492,2.391c1.34,0,1.865-0.984,1.865-2.068v-4.441
		h2.033V83.161z"/>
	<path fill="#FFFFFF" d="M117.242,82.042h-0.051c-0.576,0.916-1.525,1.322-2.611,1.322c-1.508,0-2.967-0.83-2.967-2.441
		c0-2.645,3.086-2.83,5.119-2.83h0.51v-0.221c0-1-0.779-1.525-1.865-1.525c-0.848,0-1.627,0.338-2.17,0.848l-1.068-1.068
		c0.898-0.916,2.17-1.306,3.459-1.306c3.475,0,3.475,2.509,3.475,3.662v4.679h-1.83V82.042z M117.123,79.517h-0.424
		c-1.119,0-3.051,0.084-3.051,1.254c0,0.746,0.762,1.068,1.424,1.068c1.391,0,2.051-0.729,2.051-1.865V79.517z"/>
	<path fill="#FFFFFF" d="M121.635,70.345h2.035v12.816h-2.035V70.345z"/>
	<path fill="#FFFFFF" d="M131.895,71.159h2.83l5.816,8.916l0.033,0.035h-0.033l0.033-0.035v-8.916h2.137v12.002h-2.713l-5.934-9.205
		h-0.033v9.205h-2.137V71.159z"/>
	<path fill="#FFFFFF" d="M150.631,82.042h-0.051c-0.576,0.916-1.525,1.322-2.609,1.322c-1.51,0-2.967-0.83-2.967-2.441
		c0-2.645,3.084-2.83,5.119-2.83h0.508v-0.221c0-1-0.779-1.525-1.863-1.525c-0.848,0-1.629,0.338-2.17,0.848l-1.068-1.068
		c0.898-0.916,2.17-1.306,3.457-1.306c3.477,0,3.477,2.509,3.477,3.662v4.679h-1.832V82.042z M150.514,79.517h-0.424
		c-1.119,0-3.053,0.084-3.053,1.254c0,0.746,0.764,1.068,1.424,1.068c1.391,0,2.053-0.729,2.053-1.865V79.517z"/>
	<path fill="#FFFFFF" d="M154.041,76.753v-1.729h1.68v-2.357h2.033v2.357h2.238v1.729h-2.238v3.561c0,0.813,0.238,1.322,1.137,1.322
		c0.355,0,0.848-0.068,1.102-0.254v1.711c-0.424,0.204-1.137,0.271-1.611,0.271c-2.152,0-2.66-0.966-2.66-2.882v-3.729H154.041z"/>
	<path fill="#FFFFFF" d="M162.961,71.04c0.746,0,1.322,0.525,1.322,1.221s-0.576,1.221-1.322,1.221s-1.289-0.576-1.289-1.221
		S162.215,71.04,162.961,71.04z M161.961,75.024h2.033v8.137h-2.033V75.024z"/>
	<path fill="#FFFFFF" d="M170.693,74.82c2.459,0,4.424,1.712,4.424,4.272c0,2.56-1.965,4.271-4.424,4.271s-4.424-1.712-4.424-4.271
		C166.27,76.532,168.234,74.82,170.693,74.82z M170.693,81.534c1.492,0,2.391-1.17,2.391-2.441s-0.898-2.441-2.391-2.441
		s-2.391,1.17-2.391,2.441S169.201,81.534,170.693,81.534z"/>
	<path fill="#FFFFFF" d="M177.357,75.024h1.934v1.305h0.033c0.373-0.813,1.137-1.509,2.492-1.509c2.188,0,2.967,1.543,2.967,3.204
		v5.137h-2.033v-4.119c0-0.898-0.068-2.391-1.492-2.391c-1.34,0-1.865,0.983-1.865,2.068v4.441h-2.035V75.024z"/>
	<path fill="#FFFFFF" d="M192.516,82.042h-0.051c-0.576,0.916-1.525,1.322-2.609,1.322c-1.51,0-2.967-0.83-2.967-2.441
		c0-2.645,3.084-2.83,5.119-2.83h0.508v-0.221c0-1-0.779-1.525-1.863-1.525c-0.848,0-1.629,0.338-2.17,0.848l-1.068-1.068
		c0.898-0.916,2.17-1.306,3.457-1.306c3.477,0,3.477,2.509,3.477,3.662v4.679h-1.832V82.042z M192.398,79.517h-0.424
		c-1.119,0-3.053,0.084-3.053,1.254c0,0.746,0.764,1.068,1.424,1.068c1.391,0,2.053-0.729,2.053-1.865V79.517z"/>
	<path fill="#FFFFFF" d="M196.91,70.345h2.035v12.816h-2.035V70.345z"/>
	<path fill="#FFFFFF" d="M7.104,94.085c-0.459-0.645-1.271-0.949-2.102-0.949c-0.984,0-1.967,0.441-1.967,1.543
		c0,2.407,5.695,1.033,5.695,5.307c0,2.576-2.035,3.83-4.391,3.83c-1.492,0-2.949-0.457-3.934-1.627l1.611-1.56
		c0.525,0.797,1.424,1.255,2.373,1.255c0.982,0,2.102-0.543,2.102-1.645c0-2.628-5.695-1.119-5.695-5.408
		c0-2.475,2.203-3.628,4.424-3.628c1.256,0,2.51,0.356,3.441,1.237L7.104,94.085z"/>
	<path fill="#FFFFFF" d="M10.156,97.103v-1.729h1.68v-2.357h2.033v2.357h2.238v1.729h-2.238v3.561c0,0.813,0.238,1.322,1.137,1.322
		c0.355,0,0.848-0.068,1.102-0.254v1.711c-0.424,0.204-1.137,0.271-1.611,0.271c-2.152,0-2.66-0.966-2.66-2.882v-3.729H10.156z"/>
	<path fill="#FFFFFF" d="M25.469,103.511h-1.934v-1.305h-0.033c-0.373,0.812-1.137,1.508-2.492,1.508
		c-2.188,0-2.967-1.543-2.967-3.203v-5.137h2.035v4.119c0,0.898,0.066,2.391,1.49,2.391c1.34,0,1.865-0.984,1.865-2.068v-4.441
		h2.035V103.511z"/>
	<path fill="#FFFFFF" d="M34.557,102.29h-0.033c-0.594,0.983-1.662,1.424-2.797,1.424c-2.51,0-4.018-1.864-4.018-4.271
		c0-2.408,1.609-4.272,3.932-4.272c1.527,0,2.34,0.712,2.764,1.237h0.051v-5.713h2.035v12.816h-1.934V102.29z M32.133,101.884
		c1.492,0,2.391-1.17,2.391-2.441s-0.898-2.441-2.391-2.441s-2.391,1.17-2.391,2.441S30.641,101.884,32.133,101.884z"/>
	<path fill="#FFFFFF" d="M40.766,100.154c0.135,1.204,1.051,1.933,2.186,1.933c1.018,0,1.68-0.475,2.188-1.102l1.459,1.102
		c-0.951,1.17-2.154,1.627-3.441,1.627c-2.459,0-4.426-1.712-4.426-4.271c0-2.561,1.967-4.272,4.426-4.272
		c2.271,0,3.812,1.594,3.812,4.425v0.56H40.766z M44.936,98.628c-0.018-1.186-0.797-1.932-2.068-1.932
		c-1.203,0-1.949,0.762-2.102,1.932H44.936z"/>
	<path fill="#FFFFFF" d="M49.209,95.374h1.934v1.305h0.033c0.373-0.813,1.137-1.509,2.492-1.509c2.188,0,2.967,1.543,2.967,3.204
		v5.137h-2.033v-4.119c0-0.898-0.068-2.391-1.492-2.391c-1.34,0-1.865,0.983-1.865,2.068v4.441h-2.035V95.374z"/>
	<path fill="#FFFFFF" d="M58.334,97.103v-1.729h1.678v-2.357h2.035v2.357h2.236v1.729h-2.236v3.561c0,0.813,0.236,1.322,1.135,1.322
		c0.357,0,0.848-0.068,1.102-0.254v1.711c-0.424,0.204-1.135,0.271-1.609,0.271c-2.152,0-2.662-0.966-2.662-2.882v-3.729H58.334z"/>
	<path fill="#FFFFFF" d="M77.646,94.085c-0.459-0.645-1.271-0.949-2.102-0.949c-0.984,0-1.967,0.441-1.967,1.543
		c0,2.407,5.695,1.033,5.695,5.307c0,2.576-2.035,3.83-4.391,3.83c-1.492,0-2.949-0.457-3.934-1.627l1.611-1.56
		c0.525,0.797,1.424,1.255,2.373,1.255c0.982,0,2.102-0.543,2.102-1.645c0-2.628-5.695-1.119-5.695-5.408
		c0-2.475,2.203-3.628,4.424-3.628c1.256,0,2.51,0.356,3.441,1.237L77.646,94.085z"/>
	<path fill="#FFFFFF" d="M83.686,96.509h0.033c0.322-0.678,1.135-1.339,2.391-1.339c2.186,0,2.967,1.543,2.967,3.204v5.137h-2.035
		v-4.119c0-0.898-0.068-2.391-1.492-2.391c-1.338,0-1.863,0.983-1.863,2.068v4.441H81.65V90.694h2.035V96.509z"/>
	<path fill="#FFFFFF" d="M95.74,95.17c2.459,0,4.424,1.712,4.424,4.272c0,2.56-1.965,4.271-4.424,4.271s-4.424-1.712-4.424-4.271
		C91.316,96.882,93.281,95.17,95.74,95.17z M95.74,101.884c1.492,0,2.391-1.17,2.391-2.441s-0.898-2.441-2.391-2.441
		s-2.391,1.17-2.391,2.441S94.248,101.884,95.74,101.884z"/>
	<path fill="#FFFFFF" d="M101.303,95.374h2.205l1.762,5.695h0.035l1.645-5.695h2.203l1.764,5.695h0.033l1.695-5.695h2.051
		l-2.764,8.137h-2.016l-1.934-5.561h-0.033l-1.713,5.561h-2.102L101.303,95.374z"/>
	<path fill="#FFFFFF" d="M126.688,102.392h-0.051c-0.576,0.916-1.525,1.322-2.611,1.322c-1.508,0-2.967-0.83-2.967-2.441
		c0-2.645,3.086-2.83,5.119-2.83h0.51v-0.221c0-1-0.779-1.525-1.865-1.525c-0.848,0-1.627,0.338-2.17,0.848l-1.068-1.068
		c0.898-0.916,2.17-1.306,3.459-1.306c3.475,0,3.475,2.509,3.475,3.662v4.679h-1.83V102.392z M126.568,99.866h-0.424
		c-1.119,0-3.051,0.084-3.051,1.254c0,0.746,0.762,1.068,1.424,1.068c1.391,0,2.051-0.729,2.051-1.865V99.866z"/>
	<path fill="#FFFFFF" d="M131.047,95.374h1.932v1.305h0.035c0.373-0.813,1.135-1.509,2.492-1.509c2.186,0,2.967,1.543,2.967,3.204
		v5.137h-2.035v-4.119c0-0.898-0.068-2.391-1.492-2.391c-1.338,0-1.863,0.983-1.863,2.068v4.441h-2.035V95.374z"/>
	<path fill="#FFFFFF" d="M147.561,102.29h-0.033c-0.594,0.983-1.662,1.424-2.797,1.424c-2.51,0-4.018-1.864-4.018-4.271
		c0-2.408,1.609-4.272,3.932-4.272c1.527,0,2.34,0.712,2.764,1.237h0.051v-5.713h2.035v12.816h-1.934V102.29z M145.137,101.884
		c1.492,0,2.391-1.17,2.391-2.441s-0.898-2.441-2.391-2.441s-2.391,1.17-2.391,2.441S143.645,101.884,145.137,101.884z"/>
	<path fill="#FFFFFF" d="M165.926,94.322c-0.881-0.933-1.695-1.187-2.525-1.187c-2.475,0-4.119,1.898-4.119,4.289
		c0,2.561,1.645,4.459,4.119,4.459c0.967,0,1.898-0.441,2.695-1.459l1.764,1.255c-1.086,1.492-2.713,2.136-4.477,2.136
		c-3.695,0-6.34-2.508-6.34-6.255c0-3.849,2.645-6.357,6.34-6.357c1.629,0,3.018,0.525,4.205,1.899L165.926,94.322z"/>
	<path fill="#FFFFFF" d="M173.475,95.17c2.457,0,4.424,1.712,4.424,4.272c0,2.56-1.967,4.271-4.424,4.271
		c-2.459,0-4.426-1.712-4.426-4.271C169.049,96.882,171.016,95.17,173.475,95.17z M173.475,101.884c1.49,0,2.389-1.17,2.389-2.441
		s-0.898-2.441-2.389-2.441c-1.492,0-2.391,1.17-2.391,2.441S171.982,101.884,173.475,101.884z"/>
	<path fill="#FFFFFF" d="M180.139,95.374h1.934v1.305h0.033c0.373-0.813,1.137-1.509,2.492-1.509c2.188,0,2.967,1.543,2.967,3.204
		v5.137h-2.033v-4.119c0-0.898-0.068-2.391-1.492-2.391c-1.34,0-1.865,0.983-1.865,2.068v4.441h-2.035V95.374z"/>
	<path fill="#FFFFFF" d="M190.941,97.103h-1.68v-1.729h1.68v-1.153c0-2.255,0.508-3.729,3.033-3.729
		c0.441,0,0.865,0.033,1.289,0.119l-0.135,1.729c-0.289-0.068-0.561-0.119-0.848-0.119c-1.137,0-1.307,0.78-1.307,1.679v1.476h1.883
		v1.729h-1.883v6.408h-2.033V97.103z"/>
	<path fill="#FFFFFF" d="M198.146,100.154c0.137,1.204,1.051,1.933,2.188,1.933c1.018,0,1.678-0.475,2.188-1.102l1.457,1.102
		c-0.949,1.17-2.152,1.627-3.441,1.627c-2.459,0-4.424-1.712-4.424-4.271c0-2.561,1.965-4.272,4.424-4.272
		c2.271,0,3.814,1.594,3.814,4.425v0.56H198.146z M202.316,98.628c-0.016-1.186-0.797-1.932-2.068-1.932
		c-1.203,0-1.949,0.762-2.102,1.932H202.316z"/>
	<path fill="#FFFFFF" d="M206.592,95.374h2.035v1.288h0.033c0.441-0.933,1.34-1.492,2.408-1.492c0.254,0,0.492,0.052,0.729,0.118
		v1.967c-0.338-0.084-0.66-0.152-0.982-0.152c-1.916,0-2.188,1.611-2.188,2.051v4.357h-2.035V95.374z"/>
	<path fill="#FFFFFF" d="M214.854,100.154c0.137,1.204,1.051,1.933,2.188,1.933c1.018,0,1.678-0.475,2.188-1.102l1.457,1.102
		c-0.949,1.17-2.152,1.627-3.441,1.627c-2.459,0-4.424-1.712-4.424-4.271c0-2.561,1.965-4.272,4.424-4.272
		c2.271,0,3.814,1.594,3.814,4.425v0.56H214.854z M219.023,98.628c-0.016-1.186-0.797-1.932-2.068-1.932
		c-1.203,0-1.949,0.762-2.102,1.932H219.023z"/>
	<path fill="#FFFFFF" d="M223.299,95.374h1.932v1.305h0.035c0.373-0.813,1.135-1.509,2.492-1.509c2.186,0,2.967,1.543,2.967,3.204
		v5.137h-2.035v-4.119c0-0.898-0.068-2.391-1.492-2.391c-1.338,0-1.863,0.983-1.863,2.068v4.441h-2.035V95.374z"/>
	<path fill="#FFFFFF" d="M238.932,97.815c-0.475-0.492-1-0.814-1.543-0.814c-1.492,0-2.391,1.17-2.391,2.441
		s0.898,2.441,2.391,2.441c0.627,0,1.203-0.271,1.576-0.764l1.357,1.458c-0.832,0.831-2.221,1.136-2.934,1.136
		c-2.459,0-4.424-1.712-4.424-4.271c0-2.561,1.965-4.272,4.424-4.272c1.035,0,2.17,0.373,2.949,1.237L238.932,97.815z"/>
	<path fill="#FFFFFF" d="M243.512,100.154c0.137,1.204,1.051,1.933,2.188,1.933c1.018,0,1.678-0.475,2.188-1.102l1.457,1.102
		c-0.949,1.17-2.152,1.627-3.441,1.627c-2.459,0-4.424-1.712-4.424-4.271c0-2.561,1.965-4.272,4.424-4.272
		c2.271,0,3.814,1.594,3.814,4.425v0.56H243.512z M247.682,98.628c-0.016-1.186-0.797-1.932-2.068-1.932
		c-1.203,0-1.949,0.762-2.102,1.932H247.682z"/>
</g>
</svg>
